<svg xmlns="http://www.w3.org/2000/svg" xml:space="preserve" fill-rule="evenodd" stroke-linejoin="round" stroke-miterlimit="2" clip-rule="evenodd" viewBox="0 0 596 164">
  <text x="317.549" y="3025.14" font-family="Helvetica" font-size="12" transform="matrix(5.35875 0 0 5.35876 -1500.347 -16127.007)">M<tspan x="326.945" y="3025.14">Y</tspan></text>
  <g font-family="&quot;Helvetica-Bold&quot;,&quot;Helvetica&quot;" font-size="12" font-weight="700">
    <text x="317.549" y="3025.14" transform="matrix(5.35875 0 0 5.35876 -1410.469 -16128.281)">C<tspan x="325.615px 334.349px" y="3025.14px 3025.14px">OM</tspan></text>
    <text x="343.745" y="3025.14" transform="matrix(5.35875 0 0 5.35876 -1410.469 -16128.281)">P</text>
    <text x="350.309" y="3025.14" transform="matrix(5.35875 0 0 5.35876 -1410.469 -16128.281)">A<tspan x="358.375px 366.441px" y="3025.14px 3025.14px">NY</tspan></text>
  </g>
  <text x="317.549" y="3025.14" font-family="Helvetica" font-size="12" transform="matrix(3.06835 0 0 3.06836 -768.796 -9162.983)">f<tspan x="320.283px 323.679px 329.753px 335.827px 337.893px 343.967px 350.04px 356.114px 358.848px 368.244px" y="3025.14px 3025.14px 3025.14px 3025.14px 3025.14px 3025.14px 3025.14px 3025.14px 3025.14px 3025.14px">reelogo.me</tspan></text>
  <path d="M81.992-.001C36.737-.001-.013 36.749-.013 82.004c0 45.255 36.75 82.006 82.005 82.006 45.255 0 82.005-36.75 82.005-82.006C163.997 36.75 127.247 0 81.992 0Zm0 6.804c41.505 0 75.202 33.696 75.202 75.201 0 41.506-33.697 75.202-75.202 75.202-41.505 0-75.201-33.696-75.201-75.202C6.79 40.5 40.487 6.803 81.992 6.803Z"/>
  <path fill="url(#a)" d="m439 1260 25 25h-50l25-25Z" transform="matrix(3 0 0 3 -1235.002 -3697.994)"/>
  <path fill="url(#b)" d="m439 1260 25 25h-50l25-25Z" transform="matrix(3 0 0 -3 -1235.002 3861.998)"/>
  <path fill="url(#c)" d="m439 1260 25 25h-50l25-25Z" transform="matrix(0 -3 3 0 -3698 1399.004)"/>
  <path fill="url(#d)" d="m439 1260 25 25h-50l25-25Z" transform="matrix(0 -3 -3 0 3861.996 1399.004)"/>
  <defs>
    <linearGradient id="a" x1="0" x2="1" y1="0" y2="0" gradientTransform="matrix(50 0 0 50 414 1272.5)" gradientUnits="userSpaceOnUse">
      <stop offset="0"/>
      <stop offset="1" stop-opacity="0"/>
    </linearGradient>
    <linearGradient id="b" x1="0" x2="1" y1="0" y2="0" gradientTransform="matrix(-50 0 0 50 464 1276.05)" gradientUnits="userSpaceOnUse">
      <stop offset="0"/>
      <stop offset="1" stop-opacity="0"/>
    </linearGradient>
    <linearGradient id="c" x1="0" x2="1" y1="0" y2="0" gradientTransform="matrix(50 0 0 50 414 1276.22)" gradientUnits="userSpaceOnUse">
      <stop offset="0"/>
      <stop offset="1" stop-opacity="0"/>
    </linearGradient>
    <linearGradient id="d" x1="0" x2="1" y1="0" y2="0" gradientTransform="matrix(-50 0 0 50 464 1272.5)" gradientUnits="userSpaceOnUse">
      <stop offset="0"/>
      <stop offset="1" stop-opacity="0"/>
    </linearGradient>
  </defs>
</svg>
